<svg width="32" height="32" viewBox="0 0 32 32" fill="none" xmlns="http://www.w3.org/2000/svg">
  <mask id="path-1-inside-1_2032_536" fill="white">
    <path d="M7.99984 5.33333V2H10.6665V5.33333H21.3332V2H23.9998V5.33333H29.3332V29.3333H2.6665V5.33333H7.99984ZM5.33317 8V12H26.6665V8H5.33317ZM26.6665 14.6667H5.33317V26.6667H26.6665V14.6667Z" />
  </mask>
  <path d="M7.99984 5.33333V2H10.6665V5.33333H21.3332V2H23.9998V5.33333H29.3332V29.3333H2.6665V5.33333H7.99984ZM5.33317 8V12H26.6665V8H5.33317ZM26.6665 14.6667H5.33317V26.6667H26.6665V14.6667Z" fill="white" />
  <path d="M7.99984 5.33333V8.33333H10.9998V5.33333H7.99984ZM7.99984 2V-1H4.99984V2H7.99984ZM10.6665 2H13.6665V-1H10.6665V2ZM10.6665 5.33333H7.6665V8.33333H10.6665V5.33333ZM21.3332 5.33333V8.33333H24.3332V5.33333H21.3332ZM21.3332 2V-1H18.3332V2H21.3332ZM23.9998 2H26.9998V-1H23.9998V2ZM23.9998 5.33333H20.9998V8.33333H23.9998V5.33333ZM29.3332 5.33333H32.3332V2.33333H29.3332V5.33333ZM29.3332 29.3333V32.3333H32.3332V29.3333H29.3332ZM2.6665 29.3333H-0.333496V32.3333H2.6665V29.3333ZM2.6665 5.33333V2.33333H-0.333496V5.33333H2.6665ZM5.33317 8V5H2.33317V8H5.33317ZM5.33317 12H2.33317V15H5.33317V12ZM26.6665 12V15H29.6665V12H26.6665ZM26.6665 8H29.6665V5H26.6665V8ZM26.6665 14.6667H29.6665V11.6667H26.6665V14.6667ZM5.33317 14.6667V11.6667H2.33317V14.6667H5.33317ZM5.33317 26.6667H2.33317V29.6667H5.33317V26.6667ZM26.6665 26.6667V29.6667H29.6665V26.6667H26.6665ZM7.99984 5.33333H10.9998V2H7.99984H4.99984V5.33333H7.99984ZM7.99984 2V5H10.6665V2V-1H7.99984V2ZM10.6665 2H7.6665V5.33333H10.6665H13.6665V2H10.6665ZM10.6665 5.33333V8.33333H21.3332V5.33333V2.33333H10.6665V5.33333ZM21.3332 5.33333H24.3332V2H21.3332H18.3332V5.33333H21.3332ZM21.3332 2V5H23.9998V2V-1H21.3332V2ZM23.9998 2H20.9998V5.33333H23.9998H26.9998V2H23.9998ZM23.9998 5.33333V8.33333H29.3332V5.33333V2.33333H23.9998V5.33333ZM29.3332 5.33333H26.3332V29.3333H29.3332H32.3332V5.33333H29.3332ZM29.3332 29.3333V26.3333H2.6665V29.3333V32.3333H29.3332V29.3333ZM2.6665 29.3333H5.6665V5.33333H2.6665H-0.333496V29.3333H2.6665ZM2.6665 5.33333V8.33333H7.99984V5.33333V2.33333H2.6665V5.33333ZM5.33317 8H2.33317V12H5.33317H8.33317V8H5.33317ZM5.33317 12V15H26.6665V12V9H5.33317V12ZM26.6665 12H29.6665V8H26.6665H23.6665V12H26.6665ZM26.6665 8V5H5.33317V8V11H26.6665V8ZM26.6665 14.6667V11.6667H5.33317V14.6667V17.6667H26.6665V14.6667ZM5.33317 14.6667H2.33317V26.6667H5.33317H8.33317V14.6667H5.33317ZM5.33317 26.6667V29.6667H26.6665V26.6667V23.6667H5.33317V26.6667ZM26.6665 26.6667H29.6665V14.6667H26.6665H23.6665V26.6667H26.6665Z" fill="white" mask="url(#path-1-inside-1_2032_536)" />
</svg>