<svg width="32" height="32" viewBox="0 0 32 32" fill="none" xmlns="http://www.w3.org/2000/svg">
  <path d="M15.6667 29C20.4455 29 24.3333 25.1121 24.3333 20.3333C24.3333 15.5545 20.4455 11.6667 15.6667 11.6667C10.8879 11.6667 7 15.5545 7 20.3333C7 25.1121 10.8879 29 15.6667 29ZM15.6667 13.4C19.4895 13.4 22.6 16.5105 22.6 20.3333C22.6 24.1562 19.4895 27.2667 15.6667 27.2667C11.8438 27.2667 8.73333 24.1562 8.73333 20.3333C8.73333 16.5105 11.8438 13.4 15.6667 13.4ZM16.4701 10.8H19.363L22.5645 3H16.7613L15.6667 5.6728L14.5712 3H8.76973L11.9625 10.8H16.4701ZM17.9243 4.73333H19.9801L18.2008 9.06667H17.0551L16.6009 7.95907L17.9243 4.73333ZM13.4081 4.73333L14.8555 8.26933C14.8626 8.28838 14.8704 8.30717 14.8789 8.32567L15.1822 9.06667H13.1256L11.3515 4.73333H13.4081Z" fill="white" />
  <path d="M17.4003 22.0667H16.5336V18.6H17.4003V16.8667H13.9336V18.6H14.8003V22.0667H13.9336V23.8H17.4003V22.0667Z" fill="white" />
</svg>