<svg width="49" height="48" viewBox="0 0 49 48" fill="none" xmlns="http://www.w3.org/2000/svg">
  <path d="M24.6667 45.975C36.8031 45.975 46.6417 36.1365 46.6417 24C46.6417 11.8636 36.8031 2.02502 24.6667 2.02502C12.5302 2.02502 2.69168 11.8636 2.69168 24C2.69168 36.1365 12.5302 45.975 24.6667 45.975Z" fill="white" />
  <path d="M47.0917 24C47.0917 23.475 47.2417 15.825 42.7417 10.875C42.5167 10.425 41.6167 8.625 38.5417 6.45C36.5167 4.875 34.4167 3.75 34.1917 3.6C33.9667 3.45 30.2167 1.5 25.7167 1.5C25.3417 1.5 25.0417 1.5 24.6667 1.575C21.2167 1.5 18.0667 2.4 15.7417 3.45C13.3417 4.5 11.7667 5.55 11.6167 5.7C9.06668 7.125 4.19168 12.825 3.81668 15.9C2.24168 17.85 0.966682 26.775 3.81668 32.175C5.84168 39.675 13.3417 43.425 13.9417 43.725C14.3167 43.95 18.3667 46.5 23.3917 46.5H24.0667C24.5167 46.575 24.8917 46.575 25.3417 46.575C30.7417 46.575 38.8417 42.75 40.4917 39.75C45.1417 36.3 47.5417 27.6 47.0917 24ZM14.0167 35.325C11.8417 31.875 10.6417 27.3 10.3417 26.25C11.0167 25.2 14.3917 20.25 16.2667 18.75C17.3167 18.975 21.8917 19.8 26.1667 20.55C26.6917 21.975 29.0917 28.05 29.7667 30.45C29.0167 31.35 26.0917 34.725 23.2417 37.35C20.1667 37.425 14.9917 35.625 14.0167 35.325ZM41.0167 10.95C41.0167 11.25 40.9417 12.45 40.3417 13.875C39.2167 13.275 36.3667 12.075 32.3917 11.85C31.7917 10.95 29.5417 7.875 26.0167 5.775C26.4667 4.8 27.1417 3.675 27.5917 3.3C27.7417 3.3 27.8917 3.225 28.1917 3.225C30.0667 3.225 33.3667 4.5 33.6667 4.575C33.9667 4.725 39.8917 7.875 41.0167 10.95ZM9.51668 25.5C6.96668 25.05 5.39168 24.3 4.94168 24C3.96668 20.55 4.79168 16.8 4.86668 16.275C5.84168 14.625 8.46668 10.275 10.2667 9.45C12.0667 9.075 14.3917 9.525 15.2917 9.75C15.2167 10.95 15.0667 14.325 15.5167 17.925C13.5667 19.575 10.3417 24.3 9.51668 25.5ZM24.4417 2.625C25.0417 2.7 25.8667 2.775 26.4667 3C25.8667 3.75 25.2667 4.875 25.0417 5.475C23.8417 5.7 19.4167 6.525 15.8917 8.775C15.2167 8.625 13.0417 8.1 11.0167 8.25C11.5417 7.275 12.2917 6.6 12.3667 6.525C12.5917 6.3 17.9167 2.55 24.4417 2.625ZM38.7667 31.2C37.8667 31.2 34.4917 30.975 30.8167 30.075C30.1417 27.6 27.7417 21.525 27.2167 20.1C29.5417 16.8 31.7917 13.725 32.3917 12.825C36.6667 13.125 39.6667 14.7 40.2667 15C42.7417 18.975 43.2667 23.025 43.3417 23.7C41.9917 27.825 39.4417 30.6 38.7667 31.2ZM3.44168 21.375C3.51668 22.35 3.66668 23.325 3.96668 24.3C3.74168 24.975 3.51668 25.65 3.44168 26.325C3.21668 24.6 3.21668 22.875 3.44168 21.375ZM14.5417 42.75C12.6667 41.85 11.2417 39.75 10.6417 38.925C11.7667 37.8 13.1917 36.75 13.7167 36.375C14.9167 36.825 19.9417 38.475 23.1667 38.475C23.6917 39.225 25.4917 41.475 27.6667 43.275C26.3167 44.625 24.3667 45.225 23.9917 45.375C18.8917 45.525 14.5417 42.75 14.5417 42.75ZM26.7667 45.3C27.4417 44.925 28.1917 44.4 28.7917 43.725C29.7667 43.575 33.9667 42.9 37.7167 40.125C37.9417 40.125 38.3917 40.2 38.8417 40.2C36.5167 42.375 30.9667 44.85 26.7667 45.3ZM38.3167 39C39.6667 35.475 39.5917 32.775 39.5167 31.95C40.2667 31.2 42.8167 28.5 44.2417 24.375C44.9917 24.525 45.5167 24.675 45.7417 24.825C45.8167 25.125 45.9667 25.8 45.8917 26.85C45.2917 30.6 43.3417 36.3 39.8167 38.775C39.4417 39 38.8417 39.075 38.3167 39Z" fill="#12B994" />
</svg>