<svg width="32" height="32" viewBox="0 0 32 32" fill="none" xmlns="http://www.w3.org/2000/svg">
  <path d="M16 27.9727C22.6199 27.9727 27.9864 22.6063 27.9864 15.9864C27.9864 9.36648 22.6199 4 16 4C9.38015 4 4.01367 9.36648 4.01367 15.9864C4.01367 22.6063 9.38015 27.9727 16 27.9727Z" stroke="#12B994" stroke-width="1.875" stroke-miterlimit="10" />
  <path d="M16 11.0672L20.6492 14.4451M16 11.0672L11.3508 14.4451M16 11.0672V8.2572M20.6492 14.4451L18.8734 19.9105M20.6492 14.4451L23.3508 13.5979M18.8734 19.9105H13.1266M18.8734 19.9105L20.543 22.2392M13.1266 19.9105L11.3508 14.4451M13.1266 19.9105L11.457 22.2392M11.3508 14.4451L8.64922 13.5979M11.3508 4.87933L16 8.2572M16 8.2572L20.6492 4.87933M4 16.9757L8.64922 13.5979M8.64922 13.5979L6.8734 8.13237M13.2328 27.7047L11.457 22.2392M11.457 22.2392H5.71017M26.2898 22.2392H20.543M20.543 22.2392L18.7672 27.7047M25.1266 8.13237L23.3508 13.5979M23.3508 13.5979L28 16.9757" stroke="#12B994" stroke-width="1.875" stroke-miterlimit="10" />
</svg>